name Walk6.mot
datacolumns 19
datarows 10
range 3.48500000 3.49400000
endheader

                time	   L_ground_force_vx	   L_ground_force_vy	   L_ground_force_vz	   L_ground_force_px	   L_ground_force_py	   L_ground_force_pz	   R_ground_force_vx	   R_ground_force_vy	   R_ground_force_vz	   R_ground_force_px	   R_ground_force_py	   R_ground_force_pz	   L_ground_torque_x	   L_ground_torque_y	   L_ground_torque_z	   R_ground_torque_x	   R_ground_torque_y	   R_ground_torque_z	
          3.48500000	          0.00000000	          0.00000000	          0.00000000	          0.00000000	          0.00000000	          0.00000000	          2.52071730	         40.51086646	         -0.56596542	          0.64378591	          0.00000000	          0.10758241	          0.00000000	          0.00000000	          0.00000000	          0.00000000	         -0.75068629	          0.00000000	
          3.48600000	          0.00000000	          0.00000000	          0.00000000	          0.00000000	          0.00000000	          0.00000000	          2.05488607	         37.94396484	         -0.73016693	          0.64535492	          0.00000000	          0.10650785	          0.00000000	          0.00000000	          0.00000000	          0.00000000	         -0.68189877	          0.00000000	
          3.48700000	          0.00000000	          0.00000000	          0.00000000	          0.00000000	          0.00000000	          0.00000000	          1.65795918	         35.64131951	         -0.90716191	          0.64738859	          0.00000000	          0.10650518	          0.00000000	          0.00000000	          0.00000000	          0.00000000	         -0.63170369	          0.00000000	
          3.48800000	          0.00000000	          0.00000000	          0.00000000	          0.00000000	          0.00000000	          0.00000000	          1.32382133	         33.57187672	         -1.06838578	          0.65009779	          0.00000000	          0.10772026	          0.00000000	          0.00000000	          0.00000000	          0.00000000	         -0.59223160	          0.00000000	
          3.48900000	          0.00000000	          0.00000000	          0.00000000	          0.00000000	          0.00000000	          0.00000000	          1.02892712	         31.66143297	         -1.19882614	          0.65281764	          0.00000000	          0.10982017	          0.00000000	          0.00000000	          0.00000000	          0.00000000	         -0.55343245	          0.00000000	
          3.49000000	          0.00000000	          0.00000000	          0.00000000	          0.00000000	          0.00000000	          0.00000000	          0.74303189	         29.78767840	         -1.29962071	          0.65476937	          0.00000000	          0.11208382	          0.00000000	          0.00000000	          0.00000000	          0.00000000	         -0.51072013	          0.00000000	
          3.49100000	          0.00000000	          0.00000000	          0.00000000	          0.00000000	          0.00000000	          0.00000000	          0.45324529	         27.76451268	         -1.37043658	          0.65570411	          0.00000000	          0.11374792	          0.00000000	          0.00000000	          0.00000000	          0.00000000	         -0.46550353	          0.00000000	
          3.49200000	          0.00000000	          0.00000000	          0.00000000	          0.00000000	          0.00000000	          0.00000000	          0.17582636	         25.33423003	         -1.39172299	          0.65549434	          0.00000000	          0.11449985	          0.00000000	          0.00000000	          0.00000000	          0.00000000	         -0.41706689	          0.00000000	
          3.49300000	          0.00000000	          0.00000000	          0.00000000	          0.00000000	          0.00000000	          0.00000000	         -0.05721496	         22.19759813	         -1.33039974	          0.65382998	          0.00000000	          0.11447197	          0.00000000	          0.00000000	          0.00000000	          0.00000000	         -0.36026124	          0.00000000	
          3.49400000	          0.00000000	          0.00000000	          0.00000000	          0.00000000	          0.00000000	          0.00000000	         -0.21325834	         18.13160042	         -1.16187257	          0.65070703	          0.00000000	          0.11395644	          0.00000000	          0.00000000	          0.00000000	          0.00000000	         -0.29125079	          0.00000000	
